<svg width="32" height="32" viewBox="0 0 32 32" fill="none" xmlns="http://www.w3.org/2000/svg">
<path d="M26.6654 29.3342V25.3342C26.6654 21.5636 26.6654 19.6769 25.4934 18.5062C24.3227 17.3342 22.436 17.3342 18.6654 17.3342L15.9987 20.0009L13.332 17.3342C9.56136 17.3342 7.6747 17.3342 6.50403 18.5062C5.33203 19.6769 5.33203 21.5636 5.33203 25.3342V29.3342M21.332 17.3342V24.6676" stroke="#096B58" stroke-width="1.5" stroke-linecap="round" stroke-linejoin="round"/>
<path d="M11.3307 17.3337L11.3307 22.667M11.3307 22.667C12.038 22.667 12.7162 22.9479 13.2163 23.448C13.7164 23.9481 13.9974 24.6264 13.9974 25.3337V26.667M11.3307 22.667C10.6235 22.667 9.94521 22.9479 9.44511 23.448C8.94501 23.9481 8.66406 24.6264 8.66406 25.3337V26.667M20.6641 8.66699V7.33366C20.6641 6.72082 20.5434 6.11399 20.3088 5.5478C20.0743 4.98162 19.7306 4.46717 19.2972 4.03383C18.8639 3.60049 18.3494 3.25674 17.7833 3.02222C17.2171 2.7877 16.6102 2.66699 15.9974 2.66699C15.3846 2.66699 14.7777 2.7877 14.2115 3.02222C13.6454 3.25674 13.1309 3.60049 12.6976 4.03383C12.2642 4.46717 11.9205 4.98162 11.686 5.5478C11.4514 6.11399 11.3307 6.72082 11.3307 7.33366V8.66699C11.3307 9.27983 11.4514 9.88666 11.686 10.4528C11.9205 11.019 12.2642 11.5335 12.6976 11.9668C13.1309 12.4002 13.6454 12.7439 14.2115 12.9784C14.7777 13.213 15.3846 13.3337 15.9974 13.3337C16.6102 13.3337 17.2171 13.213 17.7833 12.9784C18.3494 12.7439 18.8639 12.4002 19.2972 11.9668C19.7306 11.5335 20.0743 11.019 20.3088 10.4528C20.5434 9.88666 20.6641 9.27983 20.6641 8.66699Z" stroke="#096B58" stroke-width="1.5" stroke-linecap="round" stroke-linejoin="round"/>
<path d="M22.332 25.667C22.332 25.9322 22.2267 26.1866 22.0391 26.3741C21.8516 26.5616 21.5972 26.667 21.332 26.667C21.0668 26.667 20.8125 26.5616 20.6249 26.3741C20.4374 26.1866 20.332 25.9322 20.332 25.667C20.332 25.4018 20.4374 25.1474 20.6249 24.9599C20.8125 24.7723 21.0668 24.667 21.332 24.667C21.5972 24.667 21.8516 24.7723 22.0391 24.9599C22.2267 25.1474 22.332 25.4018 22.332 25.667Z" stroke="#096B58" stroke-width="1.5"/>
</svg>
