<svg width="23" height="29" viewBox="0 0 23 29" fill="none" xmlns="http://www.w3.org/2000/svg">
<path d="M12.2411 27.1643C11.5994 27.3859 10.9007 27.3858 10.259 27.164C7.65966 26.2653 5.47963 24.5703 3.71888 22.079C1.73875 19.2773 0.749126 16.1669 0.750001 12.7478V7.25714C0.750001 5.60345 1.76762 4.12025 3.31051 3.52514L9.81051 1.01799C10.7369 0.660669 11.7631 0.660669 12.6895 1.01799L19.1895 3.52514C20.7324 4.12025 21.75 5.60345 21.75 7.25714V12.7478C21.75 16.1678 20.7604 19.2786 18.7811 22.0803C17.0211 24.5717 14.8411 26.2663 12.2411 27.1643Z" stroke="#096B58" stroke-width="1.5"/>
<path d="M11.7803 9.46276H10.7197C10.3682 9.46276 10.0833 9.74767 10.0833 10.0991V11.1597C10.0833 11.5112 9.79842 11.7961 9.44697 11.7961H8.38636C8.03491 11.7961 7.75 12.081 7.75 12.4325V13.4931C7.75 13.8445 8.03491 14.1294 8.38636 14.1294H9.44697C9.79842 14.1294 10.0833 14.4143 10.0833 14.7658V15.8264C10.0833 16.1779 10.3682 16.4628 10.7197 16.4628H11.7803C12.1318 16.4628 12.4167 16.1779 12.4167 15.8264V14.7658C12.4167 14.4143 12.7016 14.1294 13.053 14.1294H14.1136C14.4651 14.1294 14.75 13.8445 14.75 13.4931V12.4325C14.75 12.081 14.4651 11.7961 14.1136 11.7961H13.053C12.7016 11.7961 12.4167 11.5112 12.4167 11.1597V10.0991C12.4167 9.74767 12.1318 9.46276 11.7803 9.46276Z" stroke="#096B58" stroke-width="1.5"/>
</svg>
