<svg width="22" height="28" viewBox="0 0 22 28" fill="none" xmlns="http://www.w3.org/2000/svg">
<path d="M20.75 26.75V18.2794C20.75 17.1562 20.2985 16.0789 19.4947 15.2846C18.691 14.4903 17.6009 14.0441 16.4643 14.0441H5.03571C3.89907 14.0441 2.80898 14.4903 2.00526 15.2846C1.20153 16.0789 0.75 17.1562 0.75 18.2794V26.75M13.1971 9.97872C12.4789 9.48509 11.6249 9.22054 10.75 9.2206C9.83714 9.2206 8.99571 9.50013 8.30286 9.97872M16.17 6.89261C14.6414 5.65564 12.7257 4.98149 10.75 4.98531C8.69286 4.98531 6.81 5.69967 5.33286 6.89119M19.1757 3.85731C16.8399 1.84851 13.8464 0.744553 10.75 0.750023C7.65161 0.744149 4.65647 1.85035 2.32143 3.86296M8.75793 24.1819C9.10538 24.4739 9.47291 24.7526 9.78351 25.0026C9.99826 25.1753 10.2285 25.3591 10.4617 25.4985C10.6948 25.6378 10.9611 25.7507 11.2499 25.7507C11.5387 25.7507 11.805 25.6374 12.0381 25.4985C12.2717 25.3591 12.5015 25.1753 12.7163 25.0026C13.3132 24.5218 14.0767 23.9712 14.6753 23.2826C15.2852 22.5816 15.7499 21.7126 15.7499 20.573C15.7499 19.4138 15.1073 18.4084 14.1801 17.9754C13.3015 17.5653 12.2177 17.6893 11.2498 18.5734C10.2825 17.6893 9.1982 17.5653 8.31965 17.9754C7.39286 18.4084 6.74989 19.4138 6.74989 20.573C6.74989 21.2732 6.9257 21.8746 7.207 22.3999" stroke="#096B58" stroke-width="1.5" stroke-linecap="round"/>
</svg>
