<svg width="22" height="26" viewBox="0 0 22 26" fill="none" xmlns="http://www.w3.org/2000/svg">
<path d="M20.75 24.75V21.15C20.75 17.7564 20.75 16.0584 19.6512 15.0048C18.5537 13.9488 16.785 13.9488 13.25 13.9488H8.25C4.715 13.9488 2.94625 13.9488 1.84875 15.0048C0.75 16.0584 0.75 17.7564 0.75 21.1488C0.75 22.2684 0.75 22.8276 0.94 23.268C1.06564 23.5594 1.24987 23.8241 1.48215 24.0471C1.71444 24.2701 1.99023 24.447 2.29375 24.5676C2.7525 24.75 3.335 24.75 4.5 24.75V14.55M7.625 13.95L11.375 24.75H13.875C14.3723 24.75 14.8492 24.5604 15.2008 24.2228C15.5525 23.8852 15.75 23.4274 15.75 22.95C15.75 22.4726 15.5525 22.0148 15.2008 21.6772C14.8492 21.3396 14.3723 21.15 13.875 21.15H10.75M15.125 6.15V4.95C15.125 4.39845 15.0118 3.8523 14.792 3.34273C14.5721 2.83316 14.2498 2.37016 13.8436 1.98015C13.4373 1.59015 12.955 1.28078 12.4242 1.06971C11.8934 0.858636 11.3245 0.75 10.75 0.75C10.1755 0.75 9.60656 0.858636 9.07576 1.06971C8.54496 1.28078 8.06266 1.59015 7.65641 1.98015C7.25015 2.37016 6.92789 2.83316 6.70803 3.34273C6.48816 3.8523 6.375 4.39845 6.375 4.95V6.15C6.375 6.70155 6.48816 7.2477 6.70803 7.75727C6.92789 8.26684 7.25015 8.72984 7.65641 9.11985C8.06266 9.50985 8.54496 9.81922 9.07576 10.0303C9.60656 10.2414 10.1755 10.35 10.75 10.35C11.3245 10.35 11.8934 10.2414 12.4242 10.0303C12.955 9.81922 13.4373 9.50985 13.8436 9.11985C14.2498 8.72984 14.5721 8.26684 14.792 7.75727C15.0118 7.2477 15.125 6.70155 15.125 6.15Z" stroke="#096B58" stroke-width="1.5" stroke-linecap="round" stroke-linejoin="round"/>
</svg>
