<svg width="24" height="24" viewBox="0 0 24 24" fill="none" xmlns="http://www.w3.org/2000/svg">
<path d="M18.1355 16.4285C15.6105 15.4886 13.3479 13.9568 11.5375 11.9617C9.54273 10.1511 8.01134 7.8886 7.07181 5.3639M11.8156 5.3639C12.1263 5.05103 12.4958 4.80273 12.9029 4.63328C13.31 4.46384 13.7466 4.3766 14.1875 4.3766C14.6284 4.3766 15.065 4.46384 15.4721 4.63328C15.8792 4.80273 16.2487 5.05103 16.5594 5.3639M9.45223 2.98341L3.12586 9.3109C2.38129 10.0333 1.78781 10.8965 1.37997 11.8504C0.972131 12.8042 0.758062 13.8297 0.750223 14.867C0.742384 15.9044 0.940931 16.933 1.33431 17.8929C1.72769 18.8528 2.30805 19.7249 3.04162 20.4585C3.77519 21.192 4.64732 21.7723 5.60726 22.1657C6.56721 22.5591 7.5958 22.7576 8.63319 22.7498C9.67059 22.7419 10.6961 22.5279 11.65 22.12C12.6038 21.7122 13.4671 21.1188 14.1895 20.3742L20.5159 14.048C21.9578 12.5757 22.7606 10.5939 22.7499 8.5332C22.7392 6.47246 21.9159 4.49915 20.4587 3.04188C19.0016 1.5846 17.0283 0.761057 14.9675 0.750111C12.9067 0.739164 10.9248 1.5417 9.45223 2.98341Z" stroke="#096B58" stroke-width="1.5" stroke-linecap="round" stroke-linejoin="round"/>
</svg>
