<svg width="24" height="24" viewBox="0 0 24 24" fill="none" xmlns="http://www.w3.org/2000/svg">
<path d="M0.827 4.3338C0.75 4.7386 0.75 5.2237 0.75 6.195V13.95C0.75 18.0981 0.7511 20.1716 2.0392 21.4608C3.3273 22.75 5.4019 22.75 9.55 22.75H13.95C18.0981 22.75 20.1716 22.7489 21.4608 21.4608C22.75 20.1727 22.75 18.0981 22.75 13.95V11.5278C22.75 8.6326 22.75 7.1839 21.903 6.2434C21.826 6.15613 21.7439 6.074 21.6566 5.997C20.7161 5.15 19.2674 5.15 16.3722 5.15H15.9608C14.6925 5.15 14.0578 5.15 13.466 4.9817C13.1412 4.88887 12.8282 4.75894 12.5332 4.5945C11.9964 4.2964 11.5476 3.84759 10.65 2.95L10.045 2.34499C9.7436 2.0436 9.594 1.894 9.4356 1.7631C8.75447 1.19801 7.91875 0.851454 7.0376 0.768701C6.833 0.750001 6.6196 0.75 6.195 0.75C5.2248 0.75 4.7386 0.750001 4.3327 0.827001C3.46357 0.99142 2.66418 1.41397 2.03882 2.03954C1.41345 2.6651 0.991146 3.46462 0.827 4.3338Z" stroke="#096B58" stroke-width="1.5"/>
<path d="M11.7803 9.75H10.7197C10.3682 9.75 10.0833 10.0349 10.0833 10.3864V11.447C10.0833 11.7984 9.79842 12.0833 9.44697 12.0833H8.38636C8.03491 12.0833 7.75 12.3682 7.75 12.7197V13.7803C7.75 14.1318 8.03491 14.4167 8.38636 14.4167H9.44697C9.79842 14.4167 10.0833 14.7016 10.0833 15.053V16.1136C10.0833 16.4651 10.3682 16.75 10.7197 16.75H11.7803C12.1318 16.75 12.4167 16.4651 12.4167 16.1136V15.053C12.4167 14.7016 12.7016 14.4167 13.053 14.4167H14.1136C14.4651 14.4167 14.75 14.1318 14.75 13.7803V12.7197C14.75 12.3682 14.4651 12.0833 14.1136 12.0833H13.053C12.7016 12.0833 12.4167 11.7984 12.4167 11.447V10.3864C12.4167 10.0349 12.1318 9.75 11.7803 9.75Z" stroke="#096B58" stroke-width="1.5"/>
</svg>
