<svg width="24" height="24" viewBox="0 0 24 24" fill="none" xmlns="http://www.w3.org/2000/svg">
<path d="M19.5045 12.5774L12.0084 20L9.11393 17.1341M3.00016 9.03596C2.9918 7.98209 3.31698 6.95256 3.92919 6.09461C4.54139 5.23666 5.40927 4.59423 6.4087 4.25919C7.40814 3.92415 8.48795 3.91367 9.4937 4.22923C10.4995 4.5448 11.3797 5.17026 12.0084 6.01616C12.4217 5.46658 12.9441 5.00821 13.5427 4.66974C14.1413 4.33127 14.8034 4.11999 15.4875 4.04911C16.1716 3.97823 16.8629 4.04929 17.5183 4.25783C18.1736 4.46637 18.7789 4.80791 19.2961 5.26107C19.8134 5.71423 20.2315 6.26926 20.5243 6.89142C20.8172 7.51357 20.9784 8.18946 20.998 8.87679C21.0175 9.56411 20.895 10.2481 20.638 10.8859C20.381 11.5237 19.9951 12.1016 19.5045 12.5834M3.01315 12.0058H5.0121L7.01104 15.0036L9.00999 9.00799L10.0095 12.0058H13.0079" stroke="#666666" stroke-linecap="round" stroke-linejoin="round"/>
</svg>
