<svg width="19" height="17" viewBox="0 0 19 17" fill="none" xmlns="http://www.w3.org/2000/svg">
<path d="M17.0045 9.07739L9.50841 16.5L6.61393 13.6341M0.500157 5.53596C0.491803 4.48209 0.816981 3.45256 1.42919 2.59461C2.04139 1.73666 2.90927 1.09423 3.9087 0.75919C4.90814 0.424152 5.98795 0.413668 6.9937 0.729235C7.99946 1.0448 8.87965 1.67026 9.50841 2.51616C9.92173 1.96658 10.4441 1.50821 11.0427 1.16974C11.6413 0.831272 12.3034 0.619986 12.9875 0.549108C13.6716 0.47823 14.3629 0.549286 15.0183 0.757828C15.6736 0.966371 16.2789 1.30791 16.7961 1.76107C17.3134 2.21423 17.7315 2.76926 18.0243 3.39142C18.3172 4.01357 18.4784 4.68946 18.498 5.37679C18.5175 6.06411 18.395 6.74808 18.138 7.38587C17.881 8.02367 17.4951 8.60156 17.0045 9.08339M0.51315 8.50581H2.5121L4.51104 11.5036L6.50999 5.50799L7.50946 8.50581H10.5079" stroke="white" stroke-linecap="round" stroke-linejoin="round"/>
</svg>
