<svg width="17" height="19" viewBox="0 0 17 19" fill="none" xmlns="http://www.w3.org/2000/svg">
<path d="M4.5 2.5H2.5C1.96957 2.5 1.46086 2.71071 1.08579 3.08579C0.710714 3.46086 0.5 3.96957 0.5 4.5V8.5M4.5 2.5H12.5M4.5 2.5V0.5M4.5 2.5V4.5M12.5 2.5H14.5C15.0304 2.5 15.5391 2.71071 15.9142 3.08579C16.2893 3.46086 16.5 3.96957 16.5 4.5V8.5M12.5 2.5V0.5M12.5 2.5V4.5M16.5 8.5V16.5C16.5 17.0304 16.2893 17.5391 15.9142 17.9142C15.5391 18.2893 15.0304 18.5 14.5 18.5H2.5C1.96957 18.5 1.46086 18.2893 1.08579 17.9142C0.710714 17.5391 0.5 17.0304 0.5 16.5V8.5M16.5 8.5H0.5M7.5 13.5C7.5 13.7652 7.60536 14.0196 7.79289 14.2071C7.98043 14.3946 8.23478 14.5 8.5 14.5C8.76522 14.5 9.01957 14.3946 9.20711 14.2071C9.39464 14.0196 9.5 13.7652 9.5 13.5C9.5 13.2348 9.39464 12.9804 9.20711 12.7929C9.01957 12.6054 8.76522 12.5 8.5 12.5C8.23478 12.5 7.98043 12.6054 7.79289 12.7929C7.60536 12.9804 7.5 13.2348 7.5 13.5Z" stroke="#666666" stroke-linecap="round" stroke-linejoin="round"/>
</svg>
