<svg width="24" height="24" viewBox="0 0 24 24" fill="none" xmlns="http://www.w3.org/2000/svg">
<path d="M4 14.4526C4.28034 14.5721 4.58347 14.6309 4.88889 14.625C5.23511 14.6321 5.57789 14.5562 5.88762 14.4038C6.19736 14.2513 6.46474 14.0269 6.66667 13.75C6.8686 13.4731 7.13598 13.2487 7.44571 13.0962C7.75545 12.9438 8.09823 12.8679 8.44444 12.875C8.79066 12.8679 9.13344 12.9438 9.44318 13.0962C9.75291 13.2487 10.0203 13.4731 10.2222 13.75C10.4242 14.0269 10.6915 14.2513 11.0013 14.4038C11.311 14.5562 11.6538 14.6321 12 14.625C12.3462 14.6321 12.689 14.5562 12.9987 14.4038C13.3085 14.2513 13.5758 14.0269 13.7778 13.75C13.9797 13.4731 14.2471 13.2487 14.5568 13.0962C14.8666 12.9438 15.2093 12.8679 15.5556 12.875C15.9018 12.8679 16.2446 12.9438 16.5543 13.0962C16.864 13.2487 17.1314 13.4731 17.3333 13.75C17.5353 14.0269 17.8026 14.2513 18.1124 14.4038C18.4221 14.5562 18.7649 14.6321 19.1111 14.625C19.4222 14.6311 19.7262 14.5708 20 14.4526M4 19H20V12C20 11.3038 19.719 10.6361 19.219 10.1438C18.7189 9.65156 18.0406 9.375 17.3333 9.375H6.66667C5.95942 9.375 5.28115 9.65156 4.78105 10.1438C4.28095 10.6361 4 11.3038 4 12V19ZM12 5L13.3022 6.43325C13.5346 6.67915 13.6902 6.98569 13.7504 7.31626C13.8106 7.64683 13.7729 7.98747 13.6419 8.29754C13.5108 8.60761 13.2918 8.87399 13.0111 9.06491C12.7304 9.25582 12.3999 9.3632 12.0589 9.37422C11.7179 9.38524 11.3809 9.29944 11.0881 9.12707C10.7953 8.95469 10.559 8.70301 10.4076 8.40208C10.2561 8.10115 10.1958 7.76367 10.2339 7.42992C10.2719 7.09617 10.4067 6.78026 10.6222 6.51987L12 5Z" stroke="#666666" stroke-linecap="round" stroke-linejoin="round"/>
</svg>
