<svg width="17" height="19" viewBox="0 0 17 19" fill="none" xmlns="http://www.w3.org/2000/svg">
<path d="M12.5 0.5V4.5M4.5 0.5V4.5M0.5 8.5H16.5M7.5 12.5H8.5V15.5M0.5 4.5C0.5 3.96957 0.710714 3.46086 1.08579 3.08579C1.46086 2.71071 1.96957 2.5 2.5 2.5H14.5C15.0304 2.5 15.5391 2.71071 15.9142 3.08579C16.2893 3.46086 16.5 3.96957 16.5 4.5V16.5C16.5 17.0304 16.2893 17.5391 15.9142 17.9142C15.5391 18.2893 15.0304 18.5 14.5 18.5H2.5C1.96957 18.5 1.46086 18.2893 1.08579 17.9142C0.710714 17.5391 0.5 17.0304 0.5 16.5V4.5Z" stroke="#666666" stroke-linecap="round" stroke-linejoin="round"/>
</svg>
