<svg width="17" height="13" viewBox="0 0 17 13" fill="none" xmlns="http://www.w3.org/2000/svg">
<path d="M0.5 2.21429C0.5 1.75963 0.687301 1.32359 1.0207 1.0021C1.3541 0.680612 1.80628 0.5 2.27778 0.5H14.7222C15.1937 0.5 15.6459 0.680612 15.9793 1.0021C16.3127 1.32359 16.5 1.75963 16.5 2.21429M0.5 2.21429V10.7857C0.5 11.2404 0.687301 11.6764 1.0207 11.9979C1.3541 12.3194 1.80628 12.5 2.27778 12.5H14.7222C15.1937 12.5 15.6459 12.3194 15.9793 11.9979C16.3127 11.6764 16.5 11.2404 16.5 10.7857V2.21429M0.5 2.21429L8.5 7.35714L16.5 2.21429" stroke="#666666" stroke-linecap="round" stroke-linejoin="round"/>
</svg>
