<svg width="24" height="24" viewBox="0 0 24 24" fill="none" xmlns="http://www.w3.org/2000/svg">
<path d="M10.7422 10.744C10.4089 11.0775 10.2216 11.5297 10.2217 12.0012C10.2218 12.4727 10.4092 12.9249 10.7427 13.2582C11.0761 13.5916 11.5284 13.7788 11.9999 13.7787C12.4714 13.7786 12.9235 13.5912 13.2569 13.2578M16.1609 16.1538L16.1565 16.1565M16.1565 16.1565C14.911 16.9356 13.4692 17.3439 12 17.3333C8.8 17.3333 6.13333 15.5556 4 12C5.13067 10.1156 6.41067 8.73067 7.84 7.84533M16.1565 16.1565L4 4M16.1565 16.1565L20 20M10.3822 6.82667C10.9147 6.71854 11.4567 6.66493 12 6.66667C15.2 6.66667 17.8667 8.44444 20 12C19.4074 12.9867 18.7739 13.837 18.0996 14.5511" stroke="#666666" stroke-linecap="round" stroke-linejoin="round"/>
</svg>
