<svg width="11" height="17" viewBox="0 0 11 17" fill="none" xmlns="http://www.w3.org/2000/svg">
<path d="M10.5 0.5L6.33333 4.71053M10.5 3.86842V0.5H7.16667M3.83333 11.4474V16.5M1.33333 13.9737H6.33333M0.5 7.23684C0.5 8.1302 0.851189 8.98697 1.47631 9.61868C2.10143 10.2504 2.94928 10.6053 3.83333 10.6053C4.71739 10.6053 5.56523 10.2504 6.19036 9.61868C6.81548 8.98697 7.16667 8.1302 7.16667 7.23684C7.16667 6.34348 6.81548 5.48671 6.19036 4.85501C5.56523 4.22331 4.71739 3.86842 3.83333 3.86842C2.94928 3.86842 2.10143 4.22331 1.47631 4.85501C0.851189 5.48671 0.5 6.34348 0.5 7.23684Z" stroke="#666666" stroke-linecap="round" stroke-linejoin="round"/>
</svg>
