<svg width="24" height="24" viewBox="0 0 24 24" fill="none" xmlns="http://www.w3.org/2000/svg">
<path d="M17 4L12.8333 8.21053M17 7.36842V4H13.6667M10.3333 14.9474V20M7.83333 17.4737H12.8333M7 10.7368C7 11.6302 7.35119 12.487 7.97631 13.1187C8.60143 13.7504 9.44928 14.1053 10.3333 14.1053C11.2174 14.1053 12.0652 13.7504 12.6904 13.1187C13.3155 12.487 13.6667 11.6302 13.6667 10.7368C13.6667 9.84348 13.3155 8.98671 12.6904 8.35501C12.0652 7.72331 11.2174 7.36842 10.3333 7.36842C9.44928 7.36842 8.60143 7.72331 7.97631 8.35501C7.35119 8.98671 7 9.84348 7 10.7368Z" stroke="#666666" stroke-linecap="round" stroke-linejoin="round"/>
</svg>
