<svg width="17" height="19" viewBox="0 0 17 19" fill="none" xmlns="http://www.w3.org/2000/svg">
<path d="M5.5 8.28991C5.5 9.06469 5.81607 9.80774 6.37868 10.3556C6.94129 10.9034 7.70435 11.2112 8.5 11.2112C9.29565 11.2112 10.0587 10.9034 10.6213 10.3556C11.1839 9.80774 11.5 9.06469 11.5 8.28991C11.5 7.51513 11.1839 6.77208 10.6213 6.22422C10.0587 5.67637 9.29565 5.36859 8.5 5.36859C7.70435 5.36859 6.94129 5.67637 6.37868 6.22422C5.81607 6.77208 5.5 7.51513 5.5 8.28991Z" stroke="#666666" stroke-linecap="round" stroke-linejoin="round"/>
<path d="M9.914 17.9303L14.157 13.7985C15.2758 12.7091 16.0377 11.321 16.3463 9.80984C16.655 8.2987 16.4965 6.73237 15.891 5.30892C15.2855 3.88547 14.2601 2.66884 12.9445 1.81286C11.6289 0.956877 10.0822 0.5 8.5 0.5C6.91777 0.5 5.37107 0.956877 4.05548 1.81286C2.7399 2.66884 1.71452 3.88547 1.10901 5.30892C0.503494 6.73237 0.345043 8.2987 0.653691 9.80984C0.962339 11.321 1.72422 12.7091 2.843 13.7985L7.087 17.9303C7.46202 18.2951 7.97042 18.5 8.5005 18.5C9.03058 18.5 9.53898 18.2951 9.914 17.9303Z" stroke="#666666" stroke-linecap="round" stroke-linejoin="round"/>
</svg>
