<svg width="24" height="24" viewBox="0 0 24 24" fill="none" xmlns="http://www.w3.org/2000/svg">
<path d="M9 10.7899C9 11.5647 9.31607 12.3077 9.87868 12.8556C10.4413 13.4034 11.2044 13.7112 12 13.7112C12.7956 13.7112 13.5587 13.4034 14.1213 12.8556C14.6839 12.3077 15 11.5647 15 10.7899C15 10.0151 14.6839 9.27208 14.1213 8.72422C13.5587 8.17637 12.7956 7.86859 12 7.86859C11.2044 7.86859 10.4413 8.17637 9.87868 8.72422C9.31607 9.27208 9 10.0151 9 10.7899Z" stroke="#666666" stroke-linecap="round" stroke-linejoin="round"/>
<path d="M13.414 20.4303L17.657 16.2985C18.7758 15.2091 19.5377 13.821 19.8463 12.3098C20.155 10.7987 19.9965 9.23237 19.391 7.80892C18.7855 6.38547 17.7601 5.16884 16.4445 4.31286C15.1289 3.45688 13.5822 3 12 3C10.4178 3 8.87107 3.45688 7.55548 4.31286C6.2399 5.16884 5.21452 6.38547 4.60901 7.80892C4.00349 9.23237 3.84504 10.7987 4.15369 12.3098C4.46234 13.821 5.22422 15.2091 6.343 16.2985L10.587 20.4303C10.962 20.7951 11.4704 21 12.0005 21C12.5306 21 13.039 20.7951 13.414 20.4303Z" stroke="#666666" stroke-linecap="round" stroke-linejoin="round"/>
</svg>
