<svg width="24" height="24" viewBox="0 0 24 24" fill="none" xmlns="http://www.w3.org/2000/svg">
<path d="M8.57143 11.1111V7.55556C8.57143 6.61256 8.93265 5.70819 9.57563 5.0414C10.2186 4.3746 11.0907 4 12 4C12.9093 4 13.7814 4.3746 14.4244 5.0414C15.0673 5.70819 15.4286 6.61256 15.4286 7.55556V11.1111M6 12.8889C6 12.4174 6.18061 11.9652 6.5021 11.6318C6.82359 11.2984 7.25963 11.1111 7.71429 11.1111H16.2857C16.7404 11.1111 17.1764 11.2984 17.4979 11.6318C17.8194 11.9652 18 12.4174 18 12.8889V18.2222C18 18.6937 17.8194 19.1459 17.4979 19.4793C17.1764 19.8127 16.7404 20 16.2857 20H7.71429C7.25963 20 6.82359 19.8127 6.5021 19.4793C6.18061 19.1459 6 18.6937 6 18.2222V12.8889ZM11.1429 15.5556C11.1429 15.7913 11.2332 16.0174 11.3939 16.1841C11.5547 16.3508 11.7727 16.4444 12 16.4444C12.2273 16.4444 12.4453 16.3508 12.6061 16.1841C12.7668 16.0174 12.8571 15.7913 12.8571 15.5556C12.8571 15.3198 12.7668 15.0937 12.6061 14.927C12.4453 14.7603 12.2273 14.6667 12 14.6667C11.7727 14.6667 11.5547 14.7603 11.3939 14.927C11.2332 15.0937 11.1429 15.3198 11.1429 15.5556Z" stroke="#666666" stroke-linecap="round" stroke-linejoin="round"/>
</svg>
