<svg width="13" height="17" viewBox="0 0 13 17" fill="none" xmlns="http://www.w3.org/2000/svg">
<path d="M3.92857 2.27778H2.21429C1.75963 2.27778 1.32359 2.46508 1.0021 2.79848C0.680612 3.13187 0.5 3.58406 0.5 4.05556V14.7222C0.5 15.1937 0.680612 15.6459 1.0021 15.9793C1.32359 16.3127 1.75963 16.5 2.21429 16.5H10.7857C11.2404 16.5 11.6764 16.3127 11.9979 15.9793C12.3194 15.6459 12.5 15.1937 12.5 14.7222V4.05556C12.5 3.58406 12.3194 3.13187 11.9979 2.79848C11.6764 2.46508 11.2404 2.27778 10.7857 2.27778H9.07143M3.92857 2.27778C3.92857 1.80628 4.10918 1.3541 4.43067 1.0207C4.75217 0.687301 5.1882 0.5 5.64286 0.5H7.35714C7.8118 0.5 8.24783 0.687301 8.56933 1.0207C8.89082 1.3541 9.07143 1.80628 9.07143 2.27778M3.92857 2.27778C3.92857 2.74927 4.10918 3.20146 4.43067 3.53486C4.75217 3.86825 5.1882 4.05556 5.64286 4.05556H7.35714C7.8118 4.05556 8.24783 3.86825 8.56933 3.53486C8.89082 3.20146 9.07143 2.74927 9.07143 2.27778M6.494 12.7222L8.84857 10.22C9.13982 9.90547 9.30247 9.48629 9.30247 9.05022C9.30247 8.61415 9.13982 8.19498 8.84857 7.88044C8.7066 7.72719 8.53623 7.60527 8.3477 7.52198C8.15917 7.43869 7.95635 7.39576 7.75143 7.39576C7.5465 7.39576 7.34369 7.43869 7.15516 7.52198C6.96662 7.60527 6.79626 7.72719 6.65429 7.88044L6.49743 8.04756L6.34057 7.87956C6.1986 7.7263 6.02823 7.60438 5.8397 7.52109C5.65117 7.4378 5.44836 7.39487 5.24343 7.39487C5.0385 7.39487 4.83569 7.4378 4.64716 7.52109C4.45862 7.60438 4.28826 7.7263 4.14629 7.87956C3.85504 8.19409 3.69239 8.61326 3.69239 9.04933C3.69239 9.48541 3.85504 9.90458 4.14629 10.2191L6.49314 12.7302L6.494 12.7222Z" stroke="white" stroke-linecap="round" stroke-linejoin="round"/>
</svg>
