<svg width="24" height="24" viewBox="0 0 24 24" fill="none" xmlns="http://www.w3.org/2000/svg">
<path d="M9.42857 5.77778H7.71429C7.25963 5.77778 6.82359 5.96508 6.5021 6.29848C6.18061 6.63187 6 7.08406 6 7.55556V18.2222C6 18.6937 6.18061 19.1459 6.5021 19.4793C6.82359 19.8127 7.25963 20 7.71429 20H16.2857C16.7404 20 17.1764 19.8127 17.4979 19.4793C17.8194 19.1459 18 18.6937 18 18.2222V7.55556C18 7.08406 17.8194 6.63187 17.4979 6.29848C17.1764 5.96508 16.7404 5.77778 16.2857 5.77778H14.5714M9.42857 5.77778C9.42857 5.30628 9.60918 4.8541 9.93067 4.5207C10.2522 4.1873 10.6882 4 11.1429 4H12.8571C13.3118 4 13.7478 4.1873 14.0693 4.5207C14.3908 4.8541 14.5714 5.30628 14.5714 5.77778M9.42857 5.77778C9.42857 6.24927 9.60918 6.70146 9.93067 7.03486C10.2522 7.36825 10.6882 7.55556 11.1429 7.55556H12.8571C13.3118 7.55556 13.7478 7.36825 14.0693 7.03486C14.3908 6.70146 14.5714 6.24927 14.5714 5.77778M11.994 16.2222L14.3486 13.72C14.6398 13.4055 14.8025 12.9863 14.8025 12.5502C14.8025 12.1142 14.6398 11.695 14.3486 11.3804C14.2066 11.2272 14.0362 11.1053 13.8477 11.022C13.6592 10.9387 13.4564 10.8958 13.2514 10.8958C13.0465 10.8958 12.8437 10.9387 12.6552 11.022C12.4666 11.1053 12.2963 11.2272 12.1543 11.3804L11.9974 11.5476L11.8406 11.3796C11.6986 11.2263 11.5282 11.1044 11.3397 11.0211C11.1512 10.9378 10.9484 10.8949 10.7434 10.8949C10.5385 10.8949 10.3357 10.9378 10.1472 11.0211C9.95862 11.1044 9.78826 11.2263 9.64629 11.3796C9.35504 11.6941 9.19239 12.1133 9.19239 12.5493C9.19239 12.9854 9.35504 13.4046 9.64629 13.7191L11.9931 16.2302L11.994 16.2222Z" stroke="#666666" stroke-linecap="round" stroke-linejoin="round"/>
</svg>
