<svg width="20" height="20" viewBox="0 0 20 20" fill="none" xmlns="http://www.w3.org/2000/svg">
<path d="M16.6017 12.3346C16.119 13.6999 15.2248 14.8819 14.0423 15.7178C12.8598 16.5537 11.4472 17.0023 9.99905 17.0019C8.73334 17.0016 7.4914 16.6581 6.40537 16.008C5.31934 15.358 4.42985 14.4257 3.83155 13.3103C3.23325 12.1949 2.94851 10.9382 3.00765 9.67388C3.06678 8.40955 3.46756 7.18491 4.16735 6.13024C4.86714 5.07558 5.83976 4.23035 6.98172 3.6845C8.12368 3.13865 9.39226 2.91259 10.6525 3.03039C11.9127 3.14818 13.1174 3.60541 14.1384 4.35343C15.1595 5.10145 15.9586 6.11228 16.4508 7.27836M12.3327 7.6673H14.6664C15.7663 7.6673 16.3162 7.6673 16.6577 7.32503C17 6.98432 17 6.43436 17 5.33365V3" stroke="#096B58" stroke-linecap="round" stroke-linejoin="round"/>
</svg>
