<svg width="14" height="17" viewBox="0 0 14 17" fill="none" xmlns="http://www.w3.org/2000/svg">
<path d="M0.5 16.5V14.7222C0.5 13.7792 0.865237 12.8749 1.51536 12.2081C2.16549 11.5413 3.04725 11.1667 3.96667 11.1667H7.43333M8.3 14.7222L10.0333 16.5L13.5 12.9444M2.23333 4.05556C2.23333 4.99855 2.59857 5.90292 3.2487 6.56971C3.89882 7.23651 4.78058 7.61111 5.7 7.61111C6.61942 7.61111 7.50118 7.23651 8.1513 6.56971C8.80143 5.90292 9.16667 4.99855 9.16667 4.05556C9.16667 3.11256 8.80143 2.20819 8.1513 1.5414C7.50118 0.874602 6.61942 0.5 5.7 0.5C4.78058 0.5 3.89882 0.874602 3.2487 1.5414C2.59857 2.20819 2.23333 3.11256 2.23333 4.05556Z" stroke="white" stroke-linecap="round" stroke-linejoin="round"/>
</svg>
