<svg width="24" height="24" viewBox="0 0 24 24" fill="none" xmlns="http://www.w3.org/2000/svg">
<path d="M6 20V18.2222C6 17.2792 6.36524 16.3749 7.01536 15.7081C7.66549 15.0413 8.54725 14.6667 9.46667 14.6667H12.9333M13.8 18.2222L15.5333 20L19 16.4444M7.73333 7.55556C7.73333 8.49855 8.09857 9.40292 8.7487 10.0697C9.39882 10.7365 10.2806 11.1111 11.2 11.1111C12.1194 11.1111 13.0012 10.7365 13.6513 10.0697C14.3014 9.40292 14.6667 8.49855 14.6667 7.55556C14.6667 6.61256 14.3014 5.70819 13.6513 5.0414C13.0012 4.3746 12.1194 4 11.2 4C10.2806 4 9.39882 4.3746 8.7487 5.0414C8.09857 5.70819 7.73333 6.61256 7.73333 7.55556Z" stroke="#D0D0D0" stroke-linecap="round" stroke-linejoin="round"/>
</svg>
