<svg width="80" height="80" viewBox="0 0 80 80" fill="none" xmlns="http://www.w3.org/2000/svg">
<path d="M36.4994 42.3335L31.666 37.5835C31.0549 36.9724 30.2916 36.6668 29.376 36.6668C28.4605 36.6668 27.6682 37.0001 26.9994 37.6668C26.3882 38.2779 26.0827 39.0557 26.0827 40.0001C26.0827 40.9446 26.3882 41.7224 26.9994 42.3335L34.166 49.5001C34.8327 50.1668 35.6105 50.5001 36.4994 50.5001C37.3882 50.5001 38.166 50.1668 38.8327 49.5001L52.9994 35.3335C53.666 34.6668 53.9849 33.889 53.956 33.0001C53.9271 32.1112 53.6082 31.3335 52.9994 30.6668C52.3327 30.0001 51.5416 29.6535 50.626 29.6268C49.7105 29.6001 48.9182 29.919 48.2494 30.5835L36.4994 42.3335ZM27.166 72.5001L22.3327 64.3335L13.166 62.3335C12.3327 62.1668 11.666 61.7368 11.166 61.0435C10.666 60.3501 10.4716 59.5857 10.5827 58.7501L11.4993 49.3335L5.24935 42.1668C4.69379 41.5557 4.41602 40.8335 4.41602 40.0001C4.41602 39.1668 4.69379 38.4446 5.24935 37.8335L11.4993 30.6668L10.5827 21.2501C10.4716 20.4168 10.666 19.6524 11.166 18.9568C11.666 18.2612 12.3327 17.8312 13.166 17.6668L22.3327 15.6668L27.166 7.50013C27.6105 6.77791 28.2216 6.29124 28.9993 6.04013C29.7771 5.78902 30.5549 5.83124 31.3327 6.1668L39.9994 9.83346L48.666 6.1668C49.4438 5.83346 50.2216 5.79124 50.9994 6.04013C51.7771 6.28902 52.3882 6.77569 52.8327 7.50013L57.666 15.6668L66.8327 17.6668C67.666 17.8335 68.3327 18.2646 68.8327 18.9601C69.3327 19.6557 69.5271 20.419 69.416 21.2501L68.4993 30.6668L74.7493 37.8335C75.3049 38.4446 75.5827 39.1668 75.5827 40.0001C75.5827 40.8335 75.3049 41.5557 74.7493 42.1668L68.4993 49.3335L69.416 58.7501C69.5271 59.5835 69.3327 60.3479 68.8327 61.0435C68.3327 61.739 67.666 62.169 66.8327 62.3335L57.666 64.3335L52.8327 72.5001C52.3882 73.2224 51.7771 73.709 50.9994 73.9601C50.2216 74.2113 49.4438 74.169 48.666 73.8335L39.9994 70.1668L31.3327 73.8335C30.5549 74.1668 29.7771 74.209 28.9993 73.9601C28.2216 73.7113 27.6105 73.2246 27.166 72.5001Z" fill="#096B58"/>
</svg>
