<svg width="24" height="24" viewBox="0 0 24 24" fill="none" xmlns="http://www.w3.org/2000/svg">
<path d="M10.6905 5.69262L4.20521 15.8461C4.07152 16.0632 4.00077 16.3094 4.00001 16.5601C3.99924 16.8108 4.06848 17.0573 4.20085 17.2751C4.33322 17.4929 4.52409 17.6744 4.75449 17.8016C4.98489 17.9288 5.24678 17.9972 5.51412 18H18.4863C18.7536 17.9971 19.0153 17.9287 19.2456 17.8016C19.4759 17.6744 19.6667 17.493 19.799 17.2753C19.9314 17.0576 20.0007 16.8112 20 16.5606C19.9993 16.31 19.9287 16.0639 19.7952 15.8469L13.3099 5.69187C13.1735 5.48069 12.9813 5.30606 12.7518 5.18487C12.5224 5.06367 12.2636 5 12.0002 5C11.7369 5 11.478 5.06367 11.2486 5.18487C11.0192 5.30606 10.827 5.48069 10.6905 5.69187M12.0002 9.75057H12.0082M11.2002 12.0012H12.0002V15.0021H12.8003" stroke="#EF4444" stroke-linecap="round" stroke-linejoin="round"/>
</svg>
