<svg width="10" height="12" viewBox="0 0 10 12" fill="none" xmlns="http://www.w3.org/2000/svg">
<path d="M6.38095 5.20588L4.83333 6.77451M7.92857 3.63726L8.54762 3.0098M6.07143 0.5H3.59524M0.5 6.77451C0.5 7.3513 0.612085 7.92243 0.829855 8.45532C1.04763 8.9882 1.36682 9.47238 1.7692 9.88023C2.17159 10.2881 2.64929 10.6116 3.17504 10.8323C3.70078 11.0531 4.26427 11.1667 4.83333 11.1667C5.4024 11.1667 5.96588 11.0531 6.49163 10.8323C7.01737 10.6116 7.49508 10.2881 7.89746 9.88023C8.29985 9.47238 8.61904 8.9882 8.83681 8.45532C9.05458 7.92243 9.16667 7.3513 9.16667 6.77451C9.16667 5.60964 8.71012 4.49248 7.89746 3.66879C7.08481 2.8451 5.98261 2.38235 4.83333 2.38235C3.68406 2.38235 2.58186 2.8451 1.7692 3.66879C0.956546 4.49248 0.5 5.60964 0.5 6.77451Z" stroke="#666666" stroke-linecap="round" stroke-linejoin="round"/>
</svg>
