<svg width="12" height="17" viewBox="0 0 12 17" fill="none" xmlns="http://www.w3.org/2000/svg">
<path d="M0.5 16.5V14.7222C0.5 13.7792 0.886308 12.8749 1.57394 12.2081C2.26158 11.5413 3.19421 11.1667 4.16667 11.1667H7.83333C8.80579 11.1667 9.73842 11.5413 10.4261 12.2081C11.1137 12.8749 11.5 13.7792 11.5 14.7222V16.5M2.33333 4.05556C2.33333 4.99855 2.71964 5.90292 3.40728 6.56971C4.09491 7.23651 5.02754 7.61111 6 7.61111C6.97246 7.61111 7.90509 7.23651 8.59273 6.56971C9.28036 5.90292 9.66667 4.99855 9.66667 4.05556C9.66667 3.11256 9.28036 2.20819 8.59273 1.5414C7.90509 0.874602 6.97246 0.5 6 0.5C5.02754 0.5 4.09491 0.874602 3.40728 1.5414C2.71964 2.20819 2.33333 3.11256 2.33333 4.05556Z" stroke="#666666" stroke-linecap="round" stroke-linejoin="round"/>
</svg>
