<svg width="24" height="24" viewBox="0 0 24 24" fill="none" xmlns="http://www.w3.org/2000/svg">
<path d="M6.5 20V18.2222C6.5 17.2792 6.88631 16.3749 7.57394 15.7081C8.26158 15.0413 9.19421 14.6667 10.1667 14.6667H13.8333C14.8058 14.6667 15.7384 15.0413 16.4261 15.7081C17.1137 16.3749 17.5 17.2792 17.5 18.2222V20M8.33333 7.55556C8.33333 8.49855 8.71964 9.40292 9.40728 10.0697C10.0949 10.7365 11.0275 11.1111 12 11.1111C12.9725 11.1111 13.9051 10.7365 14.5927 10.0697C15.2804 9.40292 15.6667 8.49855 15.6667 7.55556C15.6667 6.61256 15.2804 5.70819 14.5927 5.0414C13.9051 4.3746 12.9725 4 12 4C11.0275 4 10.0949 4.3746 9.40728 5.0414C8.71964 5.70819 8.33333 6.61256 8.33333 7.55556Z" stroke="#666666" stroke-linecap="round" stroke-linejoin="round"/>
</svg>
