<svg width="24" height="24" viewBox="0 0 24 24" fill="none" xmlns="http://www.w3.org/2000/svg">
<path d="M7.08742 5.34361L12 10.256L16.8871 5.36906C16.9951 5.25417 17.1251 5.16225 17.2695 5.09884C17.4138 5.03542 17.5695 5.0018 17.7271 5C18.0646 5 18.3884 5.13408 18.627 5.37275C18.8657 5.61141 18.9998 5.93511 18.9998 6.27264C19.0028 6.42866 18.9738 6.58365 18.9147 6.72809C18.8556 6.87253 18.7676 7.00336 18.6562 7.11258L13.7054 11.9995L18.6562 16.9501C18.8659 17.1553 18.9889 17.4331 18.9998 17.7264C18.9998 18.0639 18.8657 18.3876 18.627 18.6262C18.3884 18.8649 18.0646 18.999 17.7271 18.999C17.5649 19.0057 17.4031 18.9787 17.2519 18.9195C17.1007 18.8603 16.9635 18.7704 16.8489 18.6554L12 13.743L7.10015 18.6427C6.99261 18.7537 6.86414 18.8424 6.72216 18.9036C6.58017 18.9647 6.42748 18.9972 6.2729 18.999C5.93536 18.999 5.61164 18.8649 5.37297 18.6262C5.13429 18.3876 5.00021 18.0639 5.00021 17.7264C4.99724 17.5703 5.02619 17.4153 5.08528 17.2709C5.14437 17.1265 5.23235 16.9956 5.34383 16.8864L10.2946 11.9995L5.34383 7.04894C5.13407 6.84374 5.01108 6.56587 5.00021 6.27264C5.00021 5.93511 5.13429 5.61141 5.37297 5.37275C5.61164 5.13408 5.93536 5 6.2729 5C6.57834 5.00382 6.87106 5.12726 7.08742 5.34361Z" fill="#EF4444"/>
</svg>
