<svg width="38" height="38" viewBox="0 0 38 38" fill="none" xmlns="http://www.w3.org/2000/svg">
<path d="M6.33398 20.5832V15.8332C6.33398 12.4738 7.6685 9.25195 10.044 6.87648C12.4194 4.50102 15.6412 3.1665 19.0007 3.1665C22.3601 3.1665 25.5819 4.50102 27.9573 6.87648C30.3328 9.25195 31.6673 12.4738 31.6673 15.8332V20.5832M6.33398 20.5832C6.33398 19.7433 6.66761 18.9379 7.26148 18.344C7.85534 17.7501 8.6608 17.4165 9.50065 17.4165H11.084C11.9238 17.4165 12.7293 17.7501 13.3232 18.344C13.917 18.9379 14.2507 19.7433 14.2507 20.5832V25.3332C14.2507 26.173 13.917 26.9785 13.3232 27.5723C12.7293 28.1662 11.9238 28.4998 11.084 28.4998H9.50065C8.6608 28.4998 7.85534 28.1662 7.26148 27.5723C6.66761 26.9785 6.33398 26.173 6.33398 25.3332V20.5832ZM31.6673 20.5832C31.6673 19.7433 31.3337 18.9379 30.7398 18.344C30.146 17.7501 29.3405 17.4165 28.5007 17.4165H26.9173C26.0775 17.4165 25.272 17.7501 24.6781 18.344C24.0843 18.9379 23.7507 19.7433 23.7507 20.5832V25.3332C23.7507 26.173 24.0843 26.9785 24.6781 27.5723C25.272 28.1662 26.0775 28.4998 26.9173 28.4998H28.5007M31.6673 20.5832V25.3332C31.6673 26.173 31.3337 26.9785 30.7398 27.5723C30.146 28.1662 29.3405 28.4998 28.5007 28.4998M28.5007 28.4998C28.5007 31.1234 24.2478 33.2498 19.0007 33.2498" stroke="#4D4D4D" stroke-width="1.5" stroke-linecap="round" stroke-linejoin="round"/>
</svg>
